<svg width="24" height="78" viewBox="0 0 24 78" fill="none" xmlns="http://www.w3.org/2000/svg">
<rect width="24" height="24" rx="12" fill="#F5F5F5"/>
<path d="M14.2727 8C13.2727 8 12.5455 8.52308 12 9.08974C11.4545 8.56667 10.7273 8 9.72727 8C8.13636 8 7 9.2641 7 10.8333C7 11.6179 7.31818 12.3154 7.90909 12.7949L12 16.5L16.0909 12.7949C16.6364 12.2718 17 11.6179 17 10.8333C17 9.2641 15.8636 8 14.2727 8Z" fill="#FF3055"/>
<rect y="54" width="24" height="24" rx="12" fill="#F5F5F5"/>
<path d="M14.2727 62C13.2727 62 12.5455 62.5231 12 63.0897C11.4545 62.5667 10.7273 62 9.72727 62C8.13636 62 7 63.2641 7 64.8333C7 65.6179 7.31818 66.3154 7.90909 66.7949L12 70.5L16.0909 66.7949C16.6364 66.2718 17 65.6179 17 64.8333C17 63.2641 15.8636 62 14.2727 62Z" fill="white"/>
</svg>
